HIERARCHY
ROOT Hips
{
	OFFSET 0.000000 0.000000 0.000000
	CHANNELS 6 Xposition Yposition Zposition Xrotation Yrotation Zrotation
	JOINT LeftUpLeg_virtual
	{
		OFFSET 0.000000 0.000000 0.000000
		CHANNELS 3 Xrotation Yrotation Zrotation
		JOINT LeftUpLeg
		{
			OFFSET 15.427100 -6.655098 0.678600
			CHANNELS 3 Xrotation Yrotation Zrotation
			JOINT LeftLeg
			{
				OFFSET 4.081073 -39.591068 13.024000
				CHANNELS 3 Xrotation Yrotation Zrotation
				JOINT LeftFoot
				{
					OFFSET -4.081074 -37.707932 -15.979700
					CHANNELS 3 Xrotation Yrotation Zrotation
					JOINT LeftToeBase
					{
						OFFSET 5.346399 -15.068900 20.645000
						CHANNELS 3 Xrotation Yrotation Zrotation
						JOINT LeftToe_End
						{
							OFFSET 2.754700 0.931300 11.300900
							CHANNELS 3 Xrotation Yrotation Zrotation
							End Site
							{
								OFFSET 0 0 0
							}
						}
					}
				}
			}
		}
	}
	JOINT RightUpLeg_virtual
	{
		OFFSET 0.000000 0.000000 0.000000
		CHANNELS 3 Xrotation Yrotation Zrotation
		JOINT RightUpLeg
		{
			OFFSET -15.569500 -6.655098 0.678600
			CHANNELS 3 Xrotation Yrotation Zrotation
			JOINT RightLeg
			{
				OFFSET -4.081825 -39.591045 13.023800
				CHANNELS 3 Xrotation Yrotation Zrotation
				JOINT RightFoot
				{
					OFFSET 4.081824 -37.707954 -15.979600
					CHANNELS 3 Xrotation Yrotation Zrotation
					JOINT RightToeBase
					{
						OFFSET -5.346400 -15.068900 20.645000
						CHANNELS 3 Xrotation Yrotation Zrotation
						JOINT RightToe_End
						{
							OFFSET -2.754700 0.931300 11.300900
							CHANNELS 3 Xrotation Yrotation Zrotation
							End Site
							{
								OFFSET 0 0 0
							}
						}
					}
				}
			}
		}
	}
	JOINT Spine_virtual
	{
		OFFSET 0.000000 0.000000 0.000000
		CHANNELS 3 Xrotation Yrotation Zrotation
		JOINT Spine
		{
			OFFSET -0.279200 12.230698 -2.892100
			CHANNELS 3 Xrotation Yrotation Zrotation
			JOINT Spine1
			{
				OFFSET -0.232667 10.192268 -1.242267
				CHANNELS 3 Xrotation Yrotation Zrotation
				JOINT Spine1_split
				{
					OFFSET -0.232667 10.192268 -1.242267
					CHANNELS 3 Xrotation Yrotation Zrotation
					JOINT Spine2
					{
						OFFSET -0.232667 10.192268 -1.242267
						CHANNELS 3 Xrotation Yrotation Zrotation
						JOINT Neck_virtual
						{
							OFFSET 0.000000 0.000000 0.000000
							CHANNELS 3 Xrotation Yrotation Zrotation
							JOINT Neck
							{
								OFFSET -0.418800 17.814194 8.416900
								CHANNELS 3 Xrotation Yrotation Zrotation
								JOINT Head
								{
									OFFSET 0.000000 7.031097 3.806800
									CHANNELS 3 Xrotation Yrotation Zrotation
									JOINT HeadTop_End
									{
										OFFSET 0.000000 24.646606 12.978600
										CHANNELS 3 Xrotation Yrotation Zrotation
										End Site
										{
											OFFSET 0 0 0
										}
									}
								}
							}
						}
						JOINT LeftShoulder_virtual
						{
							OFFSET 0.000000 0.000000 0.000000
							CHANNELS 3 Xrotation Yrotation Zrotation
							JOINT LeftShoulder
							{
								OFFSET 8.476499 7.247704 -3.868750
								CHANNELS 3 Xrotation Yrotation Zrotation
								JOINT LeftShoulder_split
								{
									OFFSET 8.476499 7.247704 -3.868750
									CHANNELS 3 Xrotation Yrotation Zrotation
									JOINT LeftArm
									{
										OFFSET 9.308998 -2.777710 0.208600
										CHANNELS 3 Xrotation Yrotation Zrotation
										JOINT LeftForeArm
										{
											OFFSET 29.972298 0.000000 0.000000
											CHANNELS 3 Xrotation Yrotation Zrotation
											JOINT LeftHand
											{
												OFFSET 26.026505 0.000000 0.000000
												CHANNELS 3 Xrotation Yrotation Zrotation
												End Site
												{
													OFFSET 0 0 0
												}
											}
										}
									}
								}
							}
						}
						JOINT RightShoulder_virtual
						{
							OFFSET 0.000000 0.000000 0.000000
							CHANNELS 3 Xrotation Yrotation Zrotation
							JOINT RightShoulder
							{
								OFFSET -7.570500 7.247704 -3.868750
								CHANNELS 3 Xrotation Yrotation Zrotation
								JOINT RightShoulder_split
								{
									OFFSET -7.570500 7.247704 -3.868750
									CHANNELS 3 Xrotation Yrotation Zrotation
									JOINT RightArm
									{
										OFFSET -9.308998 -2.777710 0.208500
										CHANNELS 3 Xrotation Yrotation Zrotation
										JOINT RightForeArm
										{
											OFFSET -29.972300 0.000000 0.000000
											CHANNELS 3 Xrotation Yrotation Zrotation
											JOINT RightHand
											{
												OFFSET -26.026505 0.000000 0.000000
												CHANNELS 3 Xrotation Yrotation Zrotation
												End Site
												{
													OFFSET 0 0 0
												}
											}
										}
									}
								}
							}
						}
					}
				}
			}
		}
	}
}
MOTION
Frames: 9
Frame Time: 0.03333333
19.353580 83.985886 -25.347847 0.000000 0.000000 0.000000 155.512793 -40.980524 163.158152 -21.991140 28.299564 24.784298 28.684517 19.012638 -1.270416 -10.277213 12.271375 -31.595615 0.024628 -0.578315 1.250297 0.000000 0.000000 0.000000 156.416905 -37.964213 163.487709 -43.492271 15.326104 10.564312 24.357066 0.552659 2.488934 -3.259677 -3.580361 4.990069 4.638263 0.602305 -0.090592 0.000000 0.000000 0.000000 157.195984 -40.260540 162.687019 35.727357 2.166437 10.166160 -9.165778 -2.401339 2.266764 0.629933 1.423280 0.578449 0.000000 0.000000 0.000000 -9.218094 -2.061066 2.228952 -10.385765 0.039190 -9.019685 -20.012647 -12.132643 7.295438 0.000000 0.000000 0.000000 -10.128893 -1.884196 2.017329 6.932360 -15.389144 25.534847 4.179848 1.771667 1.967424 -69.450265 -1.658919 -45.597390 -1.513570 -60.725737 4.965955 0.000000 0.000000 0.000000 -9.682422 -1.654814 2.360536 6.344118 5.324499 -2.487302 -3.610887 -0.313551 2.143858 -0.213368 5.964054 68.002927 14.353436 25.729890 -3.755950 0.000000 0.000000 0.000000 
19.146858 84.264557 -25.544762 0.000000 0.000000 0.000000 155.755238 -41.199117 163.451276 -20.600288 28.446838 23.892616 27.431476 19.141887 -1.113682 -10.077200 12.146779 -31.409062 0.143283 -0.557954 1.137678 0.000000 0.000000 0.000000 156.618369 -38.193277 163.721041 -42.782519 15.167641 10.232354 24.017824 0.563510 2.404003 -3.435621 -3.342966 4.863007 4.628645 0.637720 -0.045527 0.000000 0.000000 0.000000 157.387475 -40.488583 162.994528 35.482935 2.170647 10.147487 -9.117818 -2.417796 2.384721 0.559725 1.492639 0.574264 0.000000 0.000000 0.000000 -9.093852 -2.082754 2.314903 -11.217087 -3.230483 -7.827238 -17.860349 -15.878732 8.105964 0.000000 0.000000 0.000000 -10.022462 -1.924325 2.126583 6.599320 -14.770516 24.727894 4.205234 1.820279 2.271455 -69.296360 -1.126606 -45.849065 -1.373045 -60.202804 5.050862 0.000000 0.000000 0.000000 -9.517560 -1.680436 2.432141 6.213458 4.717029 -2.724726 -3.773842 -0.187779 2.101090 -0.129734 6.403887 68.349314 14.090270 25.844855 -3.516369 0.000000 0.000000 0.000000 
18.950871 84.542137 -25.717987 0.000000 0.000000 0.000000 155.962165 -41.405665 163.710332 -19.265250 28.568229 22.975015 26.214778 19.257360 -0.936780 -9.905026 12.012923 -31.239888 0.232860 -0.538165 1.051791 0.000000 0.000000 0.000000 156.783167 -38.386213 163.923475 -42.124113 14.985993 9.859143 23.696300 0.604474 2.329161 -3.545795 -3.121167 4.793418 4.591131 0.670394 0.002078 0.000000 0.000000 0.000000 157.527481 -40.679876 163.287147 35.263942 2.211718 10.119980 -9.091248 -2.408344 2.455017 0.573224 1.508207 0.548778 0.000000 0.000000 0.000000 -8.971610 -2.084655 2.363439 -11.927702 -6.106000 -7.003006 -16.030772 -18.741938 8.582770 0.000000 0.000000 0.000000 -9.943430 -1.940864 2.197989 6.311490 -14.303455 23.865685 4.267058 1.973641 2.611260 -69.187952 -0.664123 -46.077511 -1.482515 -59.636069 4.864399 0.000000 0.000000 0.000000 -9.373520 -1.692463 2.455735 6.085228 4.123559 -2.900832 -3.894978 -0.123795 2.114144 -0.125565 6.849656 68.711218 13.851472 26.056811 -3.292779 0.000000 0.000000 0.000000 
18.766935 84.810532 -25.839882 0.000000 0.000000 0.000000 156.132729 -41.601869 163.948309 -18.013220 28.650571 22.061514 25.071893 19.360366 -0.762360 -9.730794 11.880177 -31.080673 0.296556 -0.518547 0.984589 0.000000 0.000000 0.000000 156.911083 -38.567240 164.110936 -41.534005 14.737767 9.427246 23.438774 0.676437 2.275962 -3.625107 -2.931476 4.765076 4.571656 0.698168 0.056299 0.000000 0.000000 0.000000 157.626231 -40.854541 163.570313 35.050314 2.280233 10.095192 -9.074991 -2.379024 2.474232 0.632500 1.497264 0.541507 0.000000 0.000000 0.000000 -8.858005 -2.072988 2.372785 -12.530522 -8.480579 -6.563164 -14.550623 -20.613605 8.694350 0.000000 0.000000 0.000000 -9.889696 -1.937578 2.233188 6.064071 -13.931848 23.029549 4.291225 2.147678 2.914463 -69.121542 -0.403621 -46.259662 -1.809640 -59.199422 4.443882 0.000000 0.000000 0.000000 -9.253036 -1.696120 2.431679 5.959912 3.576119 -3.029374 -3.928262 -0.053875 2.163850 -0.192249 7.282960 69.095580 13.668358 26.373824 -3.105078 0.000000 0.000000 0.000000 
18.599001 85.058388 -25.902794 0.000000 0.000000 0.000000 156.274715 -41.803609 164.186382 -16.857998 28.692867 21.167410 24.032955 19.461647 -0.615641 -9.537525 11.762601 -30.907419 0.352015 -0.499404 0.921650 0.000000 0.000000 0.000000 157.009657 -38.765384 164.297427 -41.010290 14.398884 8.925911 23.281750 0.771001 2.246214 -3.715054 -2.791817 4.746295 4.603357 0.721015 0.121478 0.000000 0.000000 0.000000 157.709478 -41.028079 163.855623 34.822377 2.355645 10.090214 -9.059130 -2.338911 2.454609 0.711589 1.492612 0.536519 0.000000 0.000000 0.000000 -8.765736 -2.051976 2.351317 -13.033325 -10.308321 -6.467533 -13.398556 -21.610314 8.517628 0.000000 0.000000 0.000000 -9.851575 -1.919089 2.244853 5.859132 -13.616243 22.297221 4.226118 2.286633 3.112370 -69.052939 -0.388094 -46.360954 -2.330197 -58.944034 3.829174 0.000000 0.000000 0.000000 -9.158759 -1.697263 2.376508 5.840698 3.077729 -3.121783 -3.898868 0.033767 2.213435 -0.289536 7.690154 69.509251 13.536275 26.734655 -2.951002 0.000000 0.000000 0.000000 
18.450811 85.279922 -25.902817 0.000000 0.000000 0.000000 156.403764 -42.032636 164.442514 -15.795779 28.697354 20.310633 23.100244 19.559746 -0.509962 -9.321867 11.672534 -30.705433 0.412040 -0.480073 0.850139 0.000000 0.000000 0.000000 157.092889 -39.015188 164.497689 -40.536094 13.966600 8.358934 23.231061 0.880985 2.235278 -3.844477 -2.709413 4.717236 4.666142 0.738789 0.197362 0.000000 0.000000 0.000000 157.802983 -41.229658 164.149527 34.582931 2.416291 10.110243 -9.042528 -2.300768 2.416426 0.703623 1.543739 0.535049 0.000000 0.000000 0.000000 -8.699592 -2.033955 2.317755 -13.451531 -11.651691 -6.623769 -12.492204 -21.897226 8.189311 0.000000 0.000000 0.000000 -9.825585 -1.892929 2.249664 5.691737 -13.305350 21.702779 4.102114 2.367465 3.139687 -68.915509 -0.573775 -46.363922 -3.017941 -58.779945 3.054406 0.000000 0.000000 0.000000 -9.082965 -1.702418 2.311675 5.732281 2.638567 -3.193732 -3.847307 0.108594 2.237844 -0.365837 8.044186 69.921712 13.429071 27.038806 -2.815152 0.000000 0.000000 0.000000 
18.341032 85.474091 -25.856949 0.000000 0.000000 0.000000 156.540873 -42.303620 164.737510 -14.822057 28.651964 19.502661 22.260968 19.629673 -0.442425 -9.089382 11.603425 -30.484893 0.450125 -0.459740 0.776652 0.000000 0.000000 0.000000 157.184086 -39.345875 164.743739 -40.095396 13.471674 7.728437 23.269852 1.006909 2.232484 -4.022196 -2.677544 4.684973 4.708276 0.753087 0.280503 0.000000 0.000000 0.000000 157.921938 -41.484011 164.462486 34.349223 2.439024 10.145086 -9.020348 -2.272064 2.376071 0.642125 1.597159 0.545443 0.000000 0.000000 0.000000 -8.673189 -2.019439 2.285567 -13.808858 -12.596975 -6.917648 -11.753890 -21.737313 7.866580 0.000000 0.000000 0.000000 -9.806778 -1.868762 2.250407 5.561827 -12.976646 21.273630 3.943844 2.391261 3.032927 -68.683324 -0.912543 -46.280406 -3.803376 -58.519483 2.198507 0.000000 0.000000 0.000000 -9.014561 -1.711642 2.253651 5.643285 2.272031 -3.247749 -3.840743 0.101546 2.172269 -0.374308 8.337486 70.302222 13.321005 27.226807 -2.682171 0.000000 0.000000 0.000000 
18.269436 85.643936 -25.797554 0.000000 0.000000 0.000000 156.707653 -42.645625 165.076506 -13.936168 28.543958 18.764673 21.507533 19.640947 -0.404996 -8.844782 11.540393 -30.263281 0.468141 -0.439712 0.705959 0.000000 0.000000 0.000000 157.296320 -39.784660 165.027534 -39.683358 12.943944 7.055937 23.371543 1.139497 2.223877 -4.245718 -2.687377 4.652354 4.699944 0.764345 0.365721 0.000000 0.000000 0.000000 158.078786 -41.818192 164.800963 34.141035 2.413982 10.175518 -8.992916 -2.252631 2.342069 0.553500 1.655664 0.514967 0.000000 0.000000 0.000000 -8.677626 -2.008834 2.265274 -14.123104 -13.278134 -7.266603 -11.133634 -21.383451 7.648972 0.000000 0.000000 0.000000 -9.790731 -1.842453 2.253206 5.467179 -12.644785 20.975337 3.807904 2.365773 2.877171 -68.369203 -1.313284 -46.173646 -4.583920 -58.084106 1.359384 0.000000 0.000000 0.000000 -8.945850 -1.719036 2.214188 5.582031 1.986741 -3.279037 -3.903077 0.023491 2.051503 -0.249157 8.577640 70.637905 13.208416 27.309014 -2.556883 0.000000 0.000000 0.000000 
18.243904 85.786591 -25.737373 0.000000 0.000000 0.000000 156.913187 -43.087296 165.455240 -13.144879 28.352703 18.116588 20.860643 19.560958 -0.383534 -8.617723 11.468666 -30.054209 0.471645 -0.419998 0.647221 0.000000 0.000000 0.000000 157.436038 -40.360708 165.344509 -39.304436 12.414610 6.363031 23.537329 1.270493 2.201460 -4.516702 -2.726517 4.622173 4.632588 0.774224 0.444478 0.000000 0.000000 0.000000 158.277572 -42.264271 165.165736 33.976650 2.346738 10.180988 -8.959222 -2.233188 2.314441 0.501807 1.735653 0.483131 0.000000 0.000000 0.000000 -8.701961 -1.993665 2.252953 -14.403988 -13.820494 -7.614468 -10.568812 -21.039136 7.572095 0.000000 0.000000 0.000000 -9.779076 -1.810951 2.247846 5.383627 -12.298504 20.727657 3.716987 2.246728 2.742333 -68.038356 -1.743853 -46.119756 -5.235022 -57.613069 0.630794 0.000000 0.000000 0.000000 -8.873424 -1.709205 2.189002 5.548444 1.784963 -3.293707 -3.979625 -0.068007 1.868686 0.031163 8.808398 70.912827 13.101680 27.310095 -2.461536 0.000000 0.000000 0.000000 
